<?xml version="1.0" encoding="iso-8859-1"?>
<!-- Generator: Adobe Illustrator 19.0.0, SVG Export Plug-In . SVG Version: 6.00 Build 0)  -->
<svg version="1.1" id="Capa_1" xmlns="http://www.w3.org/2000/svg" xmlns:xlink="http://www.w3.org/1999/xlink" x="0px" y="0px"
	 viewBox="0 0 512 512" style="enable-background:new 0 0 512 512;" xml:space="preserve">
<path style="fill:#415A87;" d="M256,0c141.385,0,256,114.615,256,256S397.385,512,256,512S0,397.385,0,256S114.615,0,256,0z"/>
<path style="fill:#414669;" d="M46.056,140h419.889c26.269,37.574,42.717,82.519,45.599,131.119
	c-3.652,62.679-29.841,119.305-70.6,161.881H71.056c-40.759-42.576-66.948-99.202-70.6-161.881
	C3.339,222.519,19.787,177.574,46.056,140z"/>
<path style="fill:#91B9FF;" d="M512,250c0,0.328-0.033,0.647-0.049,0.972C511.983,252.644,512,254.32,512,256
	c0,54.489-17.037,104.992-46.056,146.5H46.056C17.037,360.992,0,310.489,0,256c0-1.68,0.017-3.356,0.049-5.028
	C0.033,250.647,0,250.328,0,250V110c0-11.046,8.954-20,20-20h472c11.046,0,20,8.954,20,20V250z"/>
<path style="fill:#82AAF0;" d="M0,256c0-1.68,0.017-3.356,0.049-5.028C0.033,250.647,0,250.328,0,250V110c0-11.046,8.954-20,20-20
	h40c-11.046,0-20,8.954-20,20v120v20v143.417C14.686,353.714,0,306.577,0,256z"/>
<path style="fill:#415A87;" d="M166.309,163.58V330c0,11.045-8.954,20-20,20H43.691c-11.046,0-20-8.955-20-20V163.58
	c0-11.046,8.954-20,20-20h102.617C157.354,143.58,166.309,152.534,166.309,163.58z M307.309,143.58H204.691
	c-11.046,0-20,8.954-20,20V330c0,11.045,8.954,20,20,20h102.617c11.046,0,20-8.955,20-20V163.58
	C327.309,152.534,318.354,143.58,307.309,143.58z M468.309,143.58H365.691c-11.046,0-20,8.954-20,20V330c0,11.045,8.954,20,20,20
	h102.617c11.046,0,20-8.955,20-20V163.58C488.309,152.534,479.354,143.58,468.309,143.58z"/>
<path style="fill:#6E96DC;" d="M110.732,201.092v109.273c0,5.749-4.676,10.425-10.425,10.425H91.97
	c-5.749,0-10.425-4.677-10.425-10.425v-68.267h-6.804c-3.556,0-6.696-2.004-8.194-5.229c-1.499-3.225-1.004-6.916,1.29-9.634
	l23.147-32.374c2.248-2.666,5.54-4.195,9.028-4.195h0.294C106.055,190.667,110.732,195.343,110.732,201.092z M306.604,241.27v28.917
	c0,27.948-22.656,50.604-50.604,50.604s-50.604-22.656-50.604-50.604V241.27c0-27.948,22.656-50.604,50.604-50.604
	C283.948,190.667,306.604,213.323,306.604,241.27z M277.687,241.27c0-11.978-9.71-21.687-21.687-21.687s-21.687,9.709-21.687,21.687
	v28.917c0,11.978,9.71,21.687,21.687,21.687s21.687-9.71,21.687-21.687V241.27z M467.604,241.27v28.917
	c0,27.948-22.656,50.604-50.604,50.604s-50.604-22.656-50.604-50.604V241.27c0-27.948,22.656-50.604,50.604-50.604
	C444.948,190.667,467.604,213.323,467.604,241.27z M438.687,241.27c0-11.978-9.71-21.687-21.687-21.687s-21.687,9.709-21.687,21.687
	v28.917c0,11.978,9.71,21.687,21.687,21.687s21.687-9.71,21.687-21.687V241.27z"/>
<path style="fill:#414669;" d="M488.309,163.58v7.21H345.691v-7.21c0-11.046,8.954-20,20-20h102.617
	C479.354,143.58,488.309,152.534,488.309,163.58z M307.309,143.58H204.691c-11.046,0-20,8.954-20,20v7.21h142.617v-7.21
	C327.309,152.534,318.354,143.58,307.309,143.58z M146.309,143.58H43.691c-11.046,0-20,8.954-20,20v7.21h142.617v-7.21
	C166.309,152.534,157.354,143.58,146.309,143.58z"/>
<g>
</g>
<g>
</g>
<g>
</g>
<g>
</g>
<g>
</g>
<g>
</g>
<g>
</g>
<g>
</g>
<g>
</g>
<g>
</g>
<g>
</g>
<g>
</g>
<g>
</g>
<g>
</g>
<g>
</g>
</svg>
